<?xml version="1.0" encoding="UTF-8"?>
<svg width="800px" height="800px" fill="none" version="1.1" viewBox="0 0 24 24" xmlns="http://www.w3.org/2000/svg">
 <g stroke="#000" stroke-linecap="round" stroke-linejoin="round" stroke-width="2">
  <path d="m8.9447 5.5006c-4.3868 1.4729-6.9447 6.4994-6.9447 6.4994s3.6364 7 10 7c2.0503 0 5.0115-1.4592 6.9696-3.5684m-9.7346-10.019c1.0044-0.37738 2.4239-0.40894 2.765-0.41237 6.1381-0.061555 10 7 10 7s-1.4678 2.135-3.0304 3.4316"/>
  <path d="m14 14.236c-0.5308 0.475-1.2316 0.7639-2 0.7639-1.6569 0-3-1.3431-3-3 0-0.8237 0.33193-1.5698 0.86932-2.1119"/>
  <path d="m9.5303 13.716c0.61756 0.83998 1.6524 1.223 2.4208 1.223 1.6569 0 2.8518-1.3434 2.8518-3.0003 0-0.8237-0.32571-1.3812-0.8631-1.9233"/>
  <path d="m9.8693 9.8882c0.5308-0.475 1.232-0.78983 2-0.7639 1.7056 0.05759 3.0078 1.5541 3 3-0.0045 0.82369-0.29299 1.3085-0.86932 2.1119"/>
 </g>
</svg>
