<?xml version="1.0" encoding="UTF-8"?>
<svg width="300px" height="276.404494px" viewBox="0 0 300 300" version="1.1" xmlns="http://www.w3.org/2000/svg" xmlns:xlink="http://www.w3.org/1999/xlink">
    <title>piefed</title>
    <g id="p1" stroke="none" stroke-width="1" fill="none" fill-rule="evenodd">
        <path d="M142.277521,3.42225619e-05 C180.873287,0.0291012737 219.473633,16.0349622 248.089888,41.8003513 L127.912179,146.378373 C127.236952,146.965951 126.635661,147.633559 126.121557,148.366482 C122.620825,153.357237 123.825554,160.243175 128.812396,163.746654 L239.36315,241.413882 L239.68879,241.642283 C212.093391,263.271285 177.033952,276.404494 141.897099,276.404494 C65.6305035,276.404494 0,214.529685 0,138.203241 C0,61.8767957 66.3923485,-0.0531445729 142.277521,3.42225619e-05 Z M272.689298,65.3932584 C289.804561,87.3319584 300,114.920956 300,144.888452 C300,180.398058 285.684822,212.56807 262.504249,235.955056 L146.292135,154.181054 L272.689298,65.3932584 Z M74.4086732,195.347963 L59.0071883,207.477247 C56.4197513,209.514957 55.9727327,213.263768 58.0084694,215.852758 C60.0469808,218.441216 63.7927095,218.886419 66.3775975,216.850716 L81.7790824,204.721432 C84.3665194,202.683722 84.813538,198.93491 82.7778014,196.34592 C80.7392899,193.757463 76.9935612,193.31226 74.4086732,195.347963 Z M262.818276,93.8440011 C262.909906,94.6567429 263.428541,96.0003274 264.37418,97.8747545 C271.103599,111.211743 274.95029,125.445674 275.914253,140.576549 C275.914253,149.182169 276.833751,159.810913 271.761901,176.922836 C269.69648,183.891363 266.708249,190.563817 263.494766,196.422599 C262.801938,197.685756 261.962044,199.122295 261.075512,200.357328 C259.73013,202.231589 258.327564,203.885845 257.565324,205.693767 C256.50019,208.220111 256.64841,210.717453 259.281782,212.779632 C260.996743,214.122609 263.906491,213.846606 265.947831,212.521949 C268.209208,211.054507 269.93632,207.946424 272.145024,204.013494 C272.996968,202.496479 273.691684,201.315669 274.318461,200.227841 L274.504545,199.904039 C274.596657,199.743289 274.687442,199.584084 274.7772,199.425603 L274.955437,199.109364 L275.131473,198.793595 C275.160659,198.740926 275.189775,198.688215 275.218833,198.635432 L275.392571,198.317634 C277.095884,195.179393 278.67418,191.580339 282.419718,181.276363 C288.196736,165.383791 287.652259,141.451326 287.294891,139.005981 C286.239296,123.095316 282.108546,107.874748 274.902642,93.3442767 C273.78107,91.0872746 272.241663,88.6874973 269.652155,88.2097363 C266.023547,87.534286 262.36195,89.8901328 262.818276,93.8440011 Z M114.793862,177.474738 L109.055839,190.433484 C107.81498,193.235839 109.079757,196.513586 111.881391,197.756073 C114.684588,198.997306 117.959799,197.732414 119.199726,194.932163 L124.937749,181.973417 C126.178608,179.171062 124.913831,175.893315 122.112198,174.650828 C119.309001,173.409595 116.03379,174.674487 114.793862,177.474738 Z M212.286626,169.599158 C211.269966,172.769373 213.013626,176.15934 216.179951,177.174751 L237.925325,184.148292 C241.094428,185.164594 244.487607,183.420738 245.50606,180.252325 C246.522721,177.08211 244.779061,173.692143 241.612736,172.676732 L219.867362,165.703191 C216.698258,164.686889 213.305079,166.430745 212.286626,169.599158 Z M43.9045521,146.754366 L24.7878532,149.375083 C21.5274801,149.822049 19.2465203,152.827103 19.6927986,156.08757 L19.7273721,156.309515 C20.2765164,159.450531 23.2184651,161.618239 26.4038699,161.18155 L45.5205688,158.560833 C48.7809419,158.113867 51.0619017,155.108813 50.6156235,151.848346 L50.5810499,151.626402 C50.0319056,148.485385 47.089957,146.317678 43.9045521,146.754366 Z M65.4453753,124.719557 C65.184934,127.69875 67.3886926,130.325087 70.3678499,130.585934 L83.2929997,131.717626 L83.5110267,131.732371 C86.3990823,131.870132 88.9045336,129.70184 89.1585779,126.795822 C89.4190191,123.816629 87.2152606,121.190292 84.2361032,120.929445 L71.3102188,119.797689 C68.3315505,119.537293 65.7057706,121.740889 65.4453753,124.719557 Z M97.3512221,76.9481808 C94.8742316,78.7229234 94.3037329,82.1690279 96.0766356,84.6473355 L106.440458,99.1347299 C108.215881,101.612672 111.659284,102.18141 114.133898,100.40837 C116.610889,98.6336276 117.181387,95.1875231 115.408485,92.7092155 L105.044662,78.2218211 C103.269239,75.7438792 99.8258358,75.1751411 97.3512221,76.9481808 Z M37.9724416,69.8160539 C35.9681427,72.3834527 36.4231616,76.0892846 38.9890342,78.095537 L56.5255331,91.8073027 C59.0939407,93.8123913 62.7963891,93.3563575 64.7987169,90.7914836 C66.8030158,88.2240848 66.3479969,84.518253 63.7821243,82.5120006 L46.2456254,68.8002348 C43.6772178,66.7951463 39.9747693,67.25118 37.9724416,69.8160539 Z M180.276325,36.9352329 L171.53767,52.7125555 C170.01735,55.4574385 171.008802,58.9150443 173.752673,60.4371903 C176.498499,61.9580345 179.953157,60.9661837 181.472171,58.2236603 L190.210825,42.4463377 C191.731146,39.7014548 190.739694,36.243849 187.995823,34.721703 C185.249996,33.2008588 181.795338,34.1927095 180.276325,36.9352329 Z M119.63945,25.9656707 C116.481417,26.3817599 114.258408,29.2788416 114.673856,32.4369586 L117.717553,55.5742715 C118.133685,58.7326358 121.030323,60.9548368 124.187527,60.5388568 C127.345559,60.1227677 129.568568,57.225686 129.15312,54.067569 L126.109424,30.9302561 L126.076252,30.7103639 C125.558423,27.6699604 122.72323,25.5593648 119.63945,25.9656707 Z" id="piefed" fill="#0D6EFD"></path>
    </g>
</svg>