<?xml version="1.0" encoding="UTF-8"?>
<svg width="300px" height="276.404494px" viewBox="0 0 300 276.404494" version="1.1" xmlns="http://www.w3.org/2000/svg" xmlns:xlink="http://www.w3.org/1999/xlink">
    <title>Group 4</title>
    <g id="Page-1" stroke="none" stroke-width="1" fill="none" fill-rule="evenodd">
        <g id="Group-4" transform="translate(0.000000, -0.000000)">
            <path d="M142.277521,3.42225621e-05 C180.873287,0.0291012737 219.473633,16.0349622 248.089888,41.8003513 L127.912179,146.378373 C127.236952,146.965951 126.635661,147.633559 126.121557,148.366482 C122.620825,153.357237 123.825554,160.243175 128.812396,163.746654 L239.36315,241.413882 L239.68879,241.642283 C212.093391,263.271285 177.033952,276.404494 141.897099,276.404494 C65.6305035,276.404494 0,214.529685 0,138.203241 C0,61.8767957 66.3923485,-0.0531445729 142.277521,3.42225621e-05 Z M272.689298,65.3932584 C289.804561,87.3319584 300,114.920956 300,144.888452 C300,180.398058 285.684822,212.56807 262.504249,235.955056 L146.292135,154.181054 Z" id="piefed" fill="#0D6EFD"></path>
            <path d="M217.480295,168.904797 L240.316483,168.897052 C243.64164,168.895924 246.338127,171.590582 246.339255,174.915739 C246.339255,174.917101 246.339255,174.918463 246.339255,174.919825 C246.338125,178.247901 243.640468,180.945557 240.312392,180.946686 L217.476204,180.954431 C214.151047,180.955559 211.45456,178.260901 211.453432,174.935744 C211.453432,174.934382 211.453432,174.93302 211.453432,174.931658 C211.454562,171.603582 214.152219,168.905926 217.480295,168.904797 Z" id="rect60" fill="#FFFFFF" transform="translate(228.896343, 174.925741) rotate(17.800000) translate(-228.896343, -174.925741) "></path>
            <path d="M282.419718,181.276363 C276.642701,197.168935 276.021369,197.111077 272.145024,204.013494 C269.93632,207.946424 268.209208,211.054507 265.947831,212.521949 C263.906491,213.846606 260.996743,214.122609 259.281782,212.779632 C256.64841,210.717453 256.50019,208.220111 257.565324,205.693767 C258.327564,203.885845 259.73013,202.231589 261.075512,200.357328 C261.962044,199.122295 262.801938,197.685756 263.494766,196.422599 C266.708249,190.563817 269.69648,183.891363 271.761901,176.922836 C276.833751,159.810913 275.914253,149.182169 275.914253,140.576549 C274.95029,125.445674 271.103599,111.211743 264.37418,97.8747545 C263.428541,96.0003274 262.909906,94.6567429 262.818276,93.8440011 C262.36195,89.8901328 266.023547,87.534286 269.652155,88.2097363 C272.241663,88.6874973 273.78107,91.0872746 274.902642,93.3442767 C282.108546,107.874748 286.239296,123.095316 287.294891,139.005981 C287.652259,141.451326 288.196736,165.383791 282.419718,181.276363 Z" id="path50-copy" fill="#FFFFFF"></path>
            <path d="M121.915257,25.8167383 C125.099747,25.816415 127.681548,28.3976917 127.681872,31.5821814 C127.681872,31.5825716 127.681872,31.5829619 127.681872,31.5833521 L127.679504,54.9200042 C127.67918,58.1053299 125.097045,60.6874658 121.911719,60.6877893 C118.727229,60.6881126 116.145428,58.1068358 116.145105,54.9223462 C116.145105,54.921956 116.145105,54.9215657 116.145105,54.9211755 L116.147473,31.5845234 C116.147796,28.3991977 118.729932,25.8170618 121.915257,25.8167383 Z" id="rect40" fill="#FFFFFF" transform="translate(121.913488, 43.252264) rotate(-7.500000) translate(-121.913488, -43.252264) "></path>
            <path d="M180.86936,32.8812026 C184.007154,32.8822465 186.550579,35.4256711 186.551622,38.5634658 L186.55762,56.599207 C186.558662,59.7343043 184.018009,62.276648 180.882912,62.2776906 C180.881653,62.277691 180.880394,62.277691 180.879136,62.2776906 C177.741341,62.2766467 175.197917,59.7332221 175.196873,56.5954275 L175.190875,38.5596862 C175.189833,35.4245889 177.730486,32.8822452 180.865584,32.8812026 C180.866842,32.8812022 180.868101,32.8812022 180.86936,32.8812026 Z" id="rect42" fill="#FFFFFF" transform="translate(180.874248, 47.579447) rotate(28.999999) translate(-180.874248, -47.579447) "></path>
            <path d="M40.2529577,74.4033317 L62.5137134,74.4118041 C65.7708209,74.4130438 68.4109185,77.0531416 68.4121579,80.3102491 C68.4133961,83.5641533 65.7765893,86.2029677 62.5226851,86.2042058 C62.5211903,86.2042064 62.5196955,86.2042064 62.5182007,86.2042058 L40.2574451,86.1957334 C37.0003376,86.1944938 34.36024,83.554396 34.3590005,80.2972885 C34.3577623,77.0433842 36.9945692,74.4045699 40.2484734,74.4033317 C40.2499682,74.4033311 40.251463,74.4033311 40.2529577,74.4033317 Z" id="rect46" fill="#FFFFFF" transform="translate(51.385579, 80.303769) rotate(37.999999) translate(-51.385579, -80.303769) "></path>
            <path d="M105.747914,74.255736 C108.792152,74.2546056 111.26091,76.7215312 111.262041,79.7657687 C111.262041,79.7671331 111.262041,79.7684974 111.262041,79.7698618 L111.255428,97.5825925 C111.254297,100.629754 108.784367,103.099684 105.737206,103.100815 C102.692968,103.101945 100.22421,100.63502 100.223079,97.5907823 C100.223079,97.589418 100.223079,97.5880536 100.223079,97.5866892 L100.229692,79.7739585 C100.230824,76.7267973 102.700753,74.2568675 105.747914,74.255736 Z" id="rect48" fill="#FFFFFF" transform="translate(105.742560, 88.678276) rotate(-35.600000) translate(-105.742560, -88.678276) "></path>
            <path d="M70.8143084,120.342584 L83.7889075,120.343468 C86.7794626,120.343672 89.2037355,122.767945 89.2039391,125.7585 C89.2041427,128.748529 86.7804107,131.172591 83.7903822,131.172794 C83.7901364,131.172794 83.7898906,131.172794 83.7896448,131.172794 L70.8150456,131.17191 C67.8244906,131.171707 65.4002176,128.747434 65.400014,125.756879 C65.3998105,122.76685 67.8235424,120.342788 70.8135709,120.342584 C70.8138167,120.342584 70.8140626,120.342584 70.8143084,120.342584 Z" id="rect52" fill="#FFFFFF" transform="translate(77.301977, 125.757689) rotate(5.000000) translate(-77.301977, -125.757689) "></path>
            <path d="M25.507089,148.010701 L44.8025894,148.008665 C48.0925598,148.008318 50.7598892,150.675084 50.7602364,153.965055 C50.7602364,153.965474 50.7602364,153.965893 50.7602364,153.966312 C50.7598894,157.257179 48.0922008,159.924868 44.801333,159.925215 L25.5058326,159.927251 C22.2158622,159.927599 19.5485328,157.260832 19.5481856,153.970861 C19.5481856,153.970443 19.5481856,153.970024 19.5481856,153.969605 C19.5485326,150.678737 22.2162212,148.011048 25.507089,148.010701 Z" id="rect56" fill="#FFFFFF" transform="translate(35.154211, 153.967958) rotate(-7.800000) translate(-35.154211, -153.967958) "></path>
            <path d="M116.993124,173.568957 C120.057912,173.569847 122.542191,176.054127 122.543081,179.118915 L122.547198,193.291211 C122.548088,196.353697 120.066173,198.837054 117.003687,198.837944 C117.002613,198.837944 117.001538,198.837944 117.000464,198.837944 C113.935676,198.837053 111.451397,196.352774 111.450507,193.287986 L111.446391,179.11569 C111.445501,176.053203 113.927416,173.569846 116.989902,173.568957 C116.990976,173.568956 116.99205,173.568956 116.993124,173.568957 Z" id="rect62" fill="#FFFFFF" transform="translate(116.996794, 186.203450) rotate(23.900000) translate(-116.996794, -186.203450) "></path>
            <path d="M60.5933008,200.141012 L80.1975151,200.133538 C83.4877627,200.132284 86.1560523,202.798539 86.1573067,206.088787 C86.1573073,206.090301 86.1573073,206.091815 86.1573067,206.093329 C86.1560513,209.386821 83.4864621,212.056411 80.1929699,212.057666 L60.5887556,212.065141 C57.298508,212.066395 54.6302184,209.400139 54.628964,206.109892 C54.6289634,206.108378 54.6289634,206.106864 54.628964,206.105349 C54.6302194,202.811857 57.2998087,200.142268 60.5933008,200.141012 Z" id="rect64" fill="#FFFFFF" transform="translate(70.393135, 206.099339) rotate(-38.200000) translate(-70.393135, -206.099339) "></path>
        </g>
    </g>
</svg>